<?xml version="1.0" encoding="UTF-8" standalone="no"?>
<!-- Created with Inkscape (http://www.inkscape.org/) -->

<svg
   version="1.1"
   id="svg369"
   width="455.77502"
   height="429.42056"
   viewBox="0 0 455.77502 429.42056"
   sodipodi:docname="mylogo.svg"
   inkscape:version="1.1 (c68e22c387, 2021-05-23)"
   xmlns:inkscape="http://www.inkscape.org/namespaces/inkscape"
   xmlns:sodipodi="http://sodipodi.sourceforge.net/DTD/sodipodi-0.dtd"
   xmlns="http://www.w3.org/2000/svg"
   xmlns:svg="http://www.w3.org/2000/svg">
  <defs
     id="defs373" />
  <sodipodi:namedview
     id="namedview371"
     pagecolor="#ffffff"
     bordercolor="#666666"
     borderopacity="1.0"
     inkscape:pageshadow="2"
     inkscape:pageopacity="0.0"
     inkscape:pagecheckerboard="0"
     showgrid="false"
     fit-margin-top="0"
     fit-margin-left="0"
     fit-margin-right="0"
     fit-margin-bottom="0"
     inkscape:zoom="1.075"
     inkscape:cx="227.90698"
     inkscape:cy="213.48837"
     inkscape:window-width="1920"
     inkscape:window-height="1001"
     inkscape:window-x="-9"
     inkscape:window-y="-9"
     inkscape:window-maximized="1"
     inkscape:current-layer="g375" />
  <g
     inkscape:groupmode="layer"
     inkscape:label="Image"
     id="g375"
     transform="translate(-252.11248,-55.28972)">
    <path
       style="fill:#ffffff"
       d="m 454.87267,483.74231 c -58.56812,-5.96265 -114.48632,-34.80992 -151.67348,-78.24582 -65.37518,-76.3605 -68.27887,-183.30982 -7.13434,-262.77369 9.30513,-12.09301 27.76414,-30.42185 39.81067,-39.52993 32.37005,-24.474188 68.40813,-39.689674 108.99715,-46.019236 16.20913,-2.527696 54.94733,-2.507919 70.5,0.03599 25.91894,4.239497 47.34475,11.016798 70,22.14204 25.32611,12.436812 44.6446,26.498256 63.56827,46.269726 81.29002,84.93194 78.13755,214.54031 -7.19169,295.6743 -37.40605,35.56696 -85.69466,57.34188 -138.73253,62.55905 -12.05587,1.18589 -35.93906,1.13012 -48.14405,-0.11243 z m 62.5,-17.77074 c 102.00178,-17.97806 174.5,-99.4495 174.5,-196.09815 0,-90.58482 -64.55473,-169.36051 -157.81067,-192.575264 -40.27425,-10.025708 -85.28884,-8.359271 -124.2107,4.59827 -68.63038,22.847844 -120.14186,76.973084 -136.54837,143.476994 -21.42968,86.86538 22.69921,177.87769 106.70335,220.06711 22.9403,11.52131 48.72997,19.23521 74.86639,22.39316 13.21799,1.59707 48.90648,0.53377 62.5,-1.86212 z m -93.25,-46.76043 c -0.94866,-0.38279 -1.25,-5.99602 -1.25,-23.28421 v -22.77982 l -9.25,-3.28105 c -30.66157,-10.8759 -58.11191,-30.58352 -72.47984,-52.03598 -19.12612,-28.55682 -19.20965,-61.03202 -0.23131,-89.93444 13.99875,-21.31893 37.5707,-38.67179 69.46115,-51.13495 l 12,-4.68974 0.26639,-26.62975 0.26639,-26.62975 2.54871,-0.96901 c 4.16006,-1.58165 16.64453,-1.19944 19.196,0.58768 2.18741,1.53212 2.22251,1.92088 2.22251,24.61355 v 23.05684 l 4.25,-0.63306 c 9.01027,-1.34211 21.45426,-2.57918 26.01778,-2.58644 l 4.76778,-0.008 -0.26778,24.25 -0.26778,24.25 -8.09618,0.67165 c -4.4529,0.36941 -12.2191,1.42934 -17.25821,2.3554 l -9.16203,1.68375 0.25821,56.62132 0.25821,56.62132 5.5,1.2361 c 3.025,0.67985 10.7875,1.79863 17.25,2.48618 l 11.75,1.25007 v 23.78711 23.7871 l -6.75,-0.0309 c -6.31805,-0.0289 -17.5636,-1.19088 -25,-2.5832 l -3.25,-0.6085 v 18.67703 c 0,10.96221 -0.4276,19.47601 -1.03518,20.61129 -0.91931,1.71774 -2.12268,1.92542 -10.75,1.85531 -5.34315,-0.0434 -10.27732,-0.30592 -10.96482,-0.58333 z m -1.25,-146.33772 c 0,-32.36291 -0.3366,-48 -1.03324,-48 -1.87105,0 -11.35744,5.16149 -17.53719,9.54188 -7.15904,5.07454 -16.68607,15.08042 -19.37245,20.34616 -2.22517,4.36169 -5.05712,14.74464 -5.05712,18.54121 0,1.45231 1.1762,6.19937 2.61377,10.54902 2.99623,9.06563 9.84062,18.24868 18.14455,24.34432 5.21857,3.83079 20.19032,12.65707 21.49168,12.66997 0.4125,0.004 0.75,-21.59256 0.75,-47.99256 z m 102,143 c -1.85638,-1.85638 -2,-3.33333 -2,-20.56739 0,-17.20952 -0.12798,-18.53034 -1.75,-18.06087 -2.09717,0.60699 -14.31983,2.26183 -23,3.11399 l -6.25,0.61358 v -24.41156 -24.41156 l 6.75,-0.66309 c 3.7125,-0.36469 10.6875,-1.37359 15.5,-2.24198 l 8.75,-1.5789 v -55.82521 -55.82521 l -5.25,-1.08624 c -9.37312,-1.93932 -17.15977,-3.04385 -21.5,-3.04977 l -4.25,-0.006 v -24.61807 -24.61827 l 8.25,0.69295 c 4.5375,0.38112 11.5125,1.24975 15.5,1.93029 l 7.25,1.23734 v -22.31202 c 0,-27.01129 -0.30373,-26.31201 11.42857,-26.31201 5.41991,0 7.85348,0.42491 9,1.57143 1.34703,1.34702 1.57143,5.24057 1.57143,27.26528 v 25.69385 l 5.25,1.85863 c 16.13695,5.71287 35.25873,17.18038 48.21548,28.91526 13.54741,12.26985 24.89554,29.97924 29.60195,46.19555 2.85437,9.83497 3.60885,26.74688 1.65216,37.03402 -6.58291,34.60915 -35.74674,65.78058 -76.30407,81.55672 l -8.41552,3.2735 v 21.74645 c 0,25.9099 0.43348,24.88931 -10.57143,24.88931 -6.09524,0 -7.78754,-0.35897 -9.42857,-2 z m 30.7274,-102.98094 c 24.23987,-15.96903 32.34892,-37.30016 22.32376,-58.72342 -3.63384,-7.76535 -15.23256,-19.79896 -24.09371,-24.9971 -10.00339,-5.86821 -8.95745,-10.84186 -8.95745,42.59447 0,25.90885 0.37097,47.10699 0.82437,47.10699 0.45341,0 4.90977,-2.69143 9.90303,-5.98094 z"
       id="path585" />
  </g>
</svg>
